# xmcd
#
# Track frame offsets: 
#        150
#        14131
#        38402
#        54106
#        76390
#        90480
#        106293
#        123212
#        142625
#        160658
#        175372
#        189819
#
# Disc length: 2709 seconds
#
# Revision: 0
# Processed by: cddbd v1.5.1PL0 Copyright (c) Steve Scherf et al.
# Submitted via: ExactAudioCopy v0.95a5
#
DISCID=800a930c
DTITLE=Sonja Lovrenèiè and ses amis - Toutes ces histoires
DYEAR=2004
DGENRE=Chanson
TTITLE0=Aime-moi
TTITLE1=Les feuilles mortes
TTITLE2=Ne me quitte pas
TTITLE3=L'Orion (Orion)
TTITLE4=Chante comme si tu devais mourir
TTITLE5=Cette nuit d'été (Poletna noè)
TTITLE6=Jardin d'hiver
TTITLE7=Sans un mot (Brez besed)
TTITLE8=Si jamais je te quitte (Èe zapustil te bom)
TTITLE9=N'allume pas la lumiere cette nuit (Ne prizigaj luèi v temi)
TTITLE10=Jazz Méditerranée
TTITLE11=La vie en rose
EXTD=
EXTT0=
EXTT1=
EXTT2=
EXTT3=
EXTT4=
EXTT5=
EXTT6=
EXTT7=
EXTT8=
EXTT9=
EXTT10=
EXTT11=
PLAYORDER=
